<?xml version="1.0" encoding="UTF-8" standalone="no"?>
<!DOCTYPE svg PUBLIC "-//W3C//DTD SVG 1.1//EN"
 "http://www.w3.org/Graphics/SVG/1.1/DTD/svg11.dtd">
<!-- Generated by graphviz version 2.26.3 (20100126.1600)
 -->
<!-- Title: G Pages: 1 -->
<svg width="362pt" height="700pt"
 viewBox="0.00 0.00 362.00 700.00" xmlns="http://www.w3.org/2000/svg" xmlns:xlink="http://www.w3.org/1999/xlink">
<g id="graph1" class="graph" transform="scale(1 1) rotate(0) translate(4 696)">
<title>G</title>
<polygon fill="white" stroke="white" points="-4,5 -4,-696 359,-696 359,5 -4,5"/>
<g id="graph2" class="cluster"><title>cluster_Global</title>
<polyline fill="none" stroke="gray" points="20,-8 334,-8 "/>
<path fill="none" stroke="gray" d="M334,-8C340,-8 346,-14 346,-20"/>
<polyline fill="none" stroke="gray" points="346,-20 346,-672 "/>
<path fill="none" stroke="gray" d="M346,-672C346,-678 340,-684 334,-684"/>
<polyline fill="none" stroke="gray" points="334,-684 20,-684 "/>
<path fill="none" stroke="gray" d="M20,-684C14,-684 8,-678 8,-672"/>
<polyline fill="none" stroke="gray" points="8,-672 8,-20 "/>
<path fill="none" stroke="gray" d="M8,-20C8,-14 14,-8 20,-8"/>
<text text-anchor="middle" x="177" y="-670.1" font-family="Times Roman,serif" font-size="11.00" fill="gray">Global</text>
</g>
<g id="graph3" class="cluster"><title>cluster_\Tazorax</title>
<polyline fill="none" stroke="gray" points="28,-16 326,-16 "/>
<path fill="none" stroke="gray" d="M326,-16C332,-16 338,-22 338,-28"/>
<polyline fill="none" stroke="gray" points="338,-28 338,-642 "/>
<path fill="none" stroke="gray" d="M338,-642C338,-648 332,-654 326,-654"/>
<polyline fill="none" stroke="gray" points="326,-654 28,-654 "/>
<path fill="none" stroke="gray" d="M28,-654C22,-654 16,-648 16,-642"/>
<polyline fill="none" stroke="gray" points="16,-642 16,-28 "/>
<path fill="none" stroke="gray" d="M16,-28C16,-22 22,-16 28,-16"/>
<text text-anchor="middle" x="177" y="-640.1" font-family="Times Roman,serif" font-size="11.00" fill="gray">Tazorax</text>
</g>
<g id="graph4" class="cluster"><title>cluster_\Tazorax\MathUtils</title>
<polyline fill="none" stroke="gray" points="36,-24 318,-24 "/>
<path fill="none" stroke="gray" d="M318,-24C324,-24 330,-30 330,-36"/>
<polyline fill="none" stroke="gray" points="330,-36 330,-612 "/>
<path fill="none" stroke="gray" d="M330,-612C330,-618 324,-624 318,-624"/>
<polyline fill="none" stroke="gray" points="318,-624 36,-624 "/>
<path fill="none" stroke="gray" d="M36,-624C30,-624 24,-618 24,-612"/>
<polyline fill="none" stroke="gray" points="24,-612 24,-36 "/>
<path fill="none" stroke="gray" d="M24,-36C24,-30 30,-24 36,-24"/>
<text text-anchor="middle" x="177" y="-610.1" font-family="Times Roman,serif" font-size="11.00" fill="gray">MathUtils</text>
</g>
<g id="graph5" class="cluster"><title>cluster_\Tazorax\MathUtils\ThreeD</title>
<polyline fill="none" stroke="gray" points="213,-412 277,-412 "/>
<path fill="none" stroke="gray" d="M277,-412C283,-412 289,-418 289,-424"/>
<polyline fill="none" stroke="gray" points="289,-424 289,-582 "/>
<path fill="none" stroke="gray" d="M289,-582C289,-588 283,-594 277,-594"/>
<polyline fill="none" stroke="gray" points="277,-594 213,-594 "/>
<path fill="none" stroke="gray" d="M213,-594C207,-594 201,-588 201,-582"/>
<polyline fill="none" stroke="gray" points="201,-582 201,-424 "/>
<path fill="none" stroke="gray" d="M201,-424C201,-418 207,-412 213,-412"/>
<text text-anchor="middle" x="245" y="-580.1" font-family="Times Roman,serif" font-size="11.00" fill="gray">ThreeD</text>
</g>
<g id="graph6" class="cluster"><title>cluster_\Tazorax\MathUtils\TwoD</title>
<polyline fill="none" stroke="gray" points="44,-222 277,-222 "/>
<path fill="none" stroke="gray" d="M277,-222C283,-222 289,-228 289,-234"/>
<polyline fill="none" stroke="gray" points="289,-234 289,-392 "/>
<path fill="none" stroke="gray" d="M289,-392C289,-398 283,-404 277,-404"/>
<polyline fill="none" stroke="gray" points="277,-404 44,-404 "/>
<path fill="none" stroke="gray" d="M44,-404C38,-404 32,-398 32,-392"/>
<polyline fill="none" stroke="gray" points="32,-392 32,-234 "/>
<path fill="none" stroke="gray" d="M32,-234C32,-228 38,-222 44,-222"/>
<text text-anchor="middle" x="160.5" y="-390.1" font-family="Times Roman,serif" font-size="11.00" fill="gray">TwoD</text>
</g>
<g id="graph7" class="cluster"><title>cluster_\Tazorax\MathUtils\Arithmetic</title>
<polyline fill="none" stroke="gray" points="180,-32 310,-32 "/>
<path fill="none" stroke="gray" d="M310,-32C316,-32 322,-38 322,-44"/>
<polyline fill="none" stroke="gray" points="322,-44 322,-202 "/>
<path fill="none" stroke="gray" d="M322,-202C322,-208 316,-214 310,-214"/>
<polyline fill="none" stroke="gray" points="310,-214 180,-214 "/>
<path fill="none" stroke="gray" d="M180,-214C174,-214 168,-208 168,-202"/>
<polyline fill="none" stroke="gray" points="168,-202 168,-44 "/>
<path fill="none" stroke="gray" d="M168,-44C168,-38 174,-32 180,-32"/>
<text text-anchor="middle" x="245" y="-200.1" font-family="Times Roman,serif" font-size="11.00" fill="gray">Arithmetic</text>
</g>
<!-- \\Tazorax\\MathUtils\\ThreeD\\Vector3d -->
<g id="node5" class="node"><title>\\Tazorax\\MathUtils\\ThreeD\\Vector3d</title>
<polygon fill="none" stroke="black" points="280,-564 210,-564 210,-528 280,-528 280,-564"/>
<text text-anchor="middle" x="245" y="-543.1" font-family="Courier,monospace" font-size="11.00">Vector3d</text>
</g>
<!-- \\Tazorax\\MathUtils\\ThreeD\\Point3d -->
<g id="node6" class="node"><title>\\Tazorax\\MathUtils\\ThreeD\\Point3d</title>
<polygon fill="none" stroke="black" points="277,-510 213,-510 213,-474 277,-474 277,-510"/>
<text text-anchor="middle" x="245" y="-489.1" font-family="Courier,monospace" font-size="11.00">Point3d</text>
</g>
<!-- \\Tazorax\\MathUtils\\ThreeD\\Matrix3d -->
<g id="node7" class="node"><title>\\Tazorax\\MathUtils\\ThreeD\\Matrix3d</title>
<polygon fill="none" stroke="black" points="280,-456 210,-456 210,-420 280,-420 280,-456"/>
<text text-anchor="middle" x="245" y="-435.1" font-family="Courier,monospace" font-size="11.00">Matrix3d</text>
</g>
<!-- \\Tazorax\\MathUtils\\TwoD\\Triangle -->
<g id="node9" class="node"><title>\\Tazorax\\MathUtils\\TwoD\\Triangle</title>
<polygon fill="none" stroke="black" points="280,-374 210,-374 210,-338 280,-338 280,-374"/>
<text text-anchor="middle" x="245" y="-353.1" font-family="Courier,monospace" font-size="11.00">Triangle</text>
</g>
<!-- \\Tazorax\\MathUtils\\TwoD\\Polygon -->
<g id="node10" class="node"><title>\\Tazorax\\MathUtils\\TwoD\\Polygon</title>
<polygon fill="none" stroke="black" points="104,-374 40,-374 40,-338 104,-338 104,-374"/>
<text text-anchor="middle" x="72" y="-353.1" font-family="Courier,monospace" font-size="11.00">Polygon</text>
</g>
<!-- \\Tazorax\\MathUtils\\TwoD\\Triangle&#45;&gt;\\Tazorax\\MathUtils\\TwoD\\Polygon -->
<g id="edge8" class="edge"><title>\\Tazorax\\MathUtils\\TwoD\\Triangle&#45;&gt;\\Tazorax\\MathUtils\\TwoD\\Polygon</title>
<path fill="none" stroke="black" d="M209.154,-356C181.565,-356 143.36,-356 114.278,-356"/>
<polygon fill="none" stroke="black" points="114.013,-352.5 104.013,-356 114.013,-359.5 114.013,-352.5"/>
</g>
<!-- \\Tazorax\\MathUtils\\TwoD\\Point2d -->
<g id="node11" class="node"><title>\\Tazorax\\MathUtils\\TwoD\\Point2d</title>
<polygon fill="none" stroke="black" points="277,-320 213,-320 213,-284 277,-284 277,-320"/>
<text text-anchor="middle" x="245" y="-299.1" font-family="Courier,monospace" font-size="11.00">Point2d</text>
</g>
<!-- \\Tazorax\\MathUtils\\TwoD\\Vector2d -->
<g id="node12" class="node"><title>\\Tazorax\\MathUtils\\TwoD\\Vector2d</title>
<polygon fill="none" stroke="black" points="280,-266 210,-266 210,-230 280,-230 280,-266"/>
<text text-anchor="middle" x="245" y="-245.1" font-family="Courier,monospace" font-size="11.00">Vector2d</text>
</g>
<!-- \\Tazorax\\MathUtils\\Arithmetic\\Fraction -->
<g id="node14" class="node"><title>\\Tazorax\\MathUtils\\Arithmetic\\Fraction</title>
<polygon fill="none" stroke="black" points="280,-184 210,-184 210,-148 280,-148 280,-184"/>
<text text-anchor="middle" x="245" y="-163.1" font-family="Courier,monospace" font-size="11.00">Fraction</text>
</g>
<!-- \\Tazorax\\MathUtils\\Arithmetic\\Utils -->
<g id="node15" class="node"><title>\\Tazorax\\MathUtils\\Arithmetic\\Utils</title>
<polygon fill="none" stroke="black" points="272,-130 218,-130 218,-94 272,-94 272,-130"/>
<text text-anchor="middle" x="245" y="-109.1" font-family="Courier,monospace" font-size="11.00">Utils</text>
</g>
<!-- \\Tazorax\\MathUtils\\Arithmetic\\FractionCollection -->
<g id="node16" class="node"><title>\\Tazorax\\MathUtils\\Arithmetic\\FractionCollection</title>
<polygon fill="none" stroke="black" points="314,-76 176,-76 176,-40 314,-40 314,-76"/>
<text text-anchor="middle" x="245" y="-55.1" font-family="Courier,monospace" font-size="11.00">FractionCollection</text>
</g>
</g>
</svg>
