<?xml version="1.0" encoding="UTF-8" standalone="no"?>
<!DOCTYPE svg PUBLIC "-//W3C//DTD SVG 1.1//EN"
 "http://www.w3.org/Graphics/SVG/1.1/DTD/svg11.dtd">
<!-- Generated by graphviz version 2.26.3 (20100126.1600)
 -->
<!-- Title: G Pages: 1 -->
<svg width="393pt" height="890pt"
 viewBox="0.00 0.00 393.00 890.00" xmlns="http://www.w3.org/2000/svg" xmlns:xlink="http://www.w3.org/1999/xlink">
<g id="graph1" class="graph" transform="scale(1 1) rotate(0) translate(4 886)">
<title>G</title>
<polygon fill="white" stroke="white" points="-4,5 -4,-886 390,-886 390,5 -4,5"/>
<g id="graph2" class="cluster"><title>cluster_Global</title>
<polyline fill="none" stroke="gray" points="20,-44 365,-44 "/>
<path fill="none" stroke="gray" d="M365,-44C371,-44 377,-50 377,-56"/>
<polyline fill="none" stroke="gray" points="377,-56 377,-862 "/>
<path fill="none" stroke="gray" d="M377,-862C377,-868 371,-874 365,-874"/>
<polyline fill="none" stroke="gray" points="365,-874 20,-874 "/>
<path fill="none" stroke="gray" d="M20,-874C14,-874 8,-868 8,-862"/>
<polyline fill="none" stroke="gray" points="8,-862 8,-56 "/>
<path fill="none" stroke="gray" d="M8,-56C8,-50 14,-44 20,-44"/>
<text text-anchor="middle" x="192.5" y="-860.1" font-family="Times Roman,serif" font-size="11.00" fill="gray">Global</text>
</g>
<g id="graph3" class="cluster"><title>cluster_\Tazorax</title>
<polyline fill="none" stroke="gray" points="28,-52 357,-52 "/>
<path fill="none" stroke="gray" d="M357,-52C363,-52 369,-58 369,-64"/>
<polyline fill="none" stroke="gray" points="369,-64 369,-832 "/>
<path fill="none" stroke="gray" d="M369,-832C369,-838 363,-844 357,-844"/>
<polyline fill="none" stroke="gray" points="357,-844 28,-844 "/>
<path fill="none" stroke="gray" d="M28,-844C22,-844 16,-838 16,-832"/>
<polyline fill="none" stroke="gray" points="16,-832 16,-64 "/>
<path fill="none" stroke="gray" d="M16,-64C16,-58 22,-52 28,-52"/>
<text text-anchor="middle" x="192.5" y="-830.1" font-family="Times Roman,serif" font-size="11.00" fill="gray">Tazorax</text>
</g>
<g id="graph4" class="cluster"><title>cluster_\Tazorax\MathUtils</title>
<polyline fill="none" stroke="gray" points="36,-60 349,-60 "/>
<path fill="none" stroke="gray" d="M349,-60C355,-60 361,-66 361,-72"/>
<polyline fill="none" stroke="gray" points="361,-72 361,-802 "/>
<path fill="none" stroke="gray" d="M361,-802C361,-808 355,-814 349,-814"/>
<polyline fill="none" stroke="gray" points="349,-814 36,-814 "/>
<path fill="none" stroke="gray" d="M36,-814C30,-814 24,-808 24,-802"/>
<polyline fill="none" stroke="gray" points="24,-802 24,-72 "/>
<path fill="none" stroke="gray" d="M24,-72C24,-66 30,-60 36,-60"/>
<text text-anchor="middle" x="192.5" y="-800.1" font-family="Times Roman,serif" font-size="11.00" fill="gray">MathUtils</text>
</g>
<g id="graph5" class="cluster"><title>cluster_\Tazorax\MathUtils\ThreeD</title>
<polyline fill="none" stroke="gray" points="244,-602 308,-602 "/>
<path fill="none" stroke="gray" d="M308,-602C314,-602 320,-608 320,-614"/>
<polyline fill="none" stroke="gray" points="320,-614 320,-772 "/>
<path fill="none" stroke="gray" d="M320,-772C320,-778 314,-784 308,-784"/>
<polyline fill="none" stroke="gray" points="308,-784 244,-784 "/>
<path fill="none" stroke="gray" d="M244,-784C238,-784 232,-778 232,-772"/>
<polyline fill="none" stroke="gray" points="232,-772 232,-614 "/>
<path fill="none" stroke="gray" d="M232,-614C232,-608 238,-602 244,-602"/>
<text text-anchor="middle" x="276" y="-770.1" font-family="Times Roman,serif" font-size="11.00" fill="gray">ThreeD</text>
</g>
<g id="graph6" class="cluster"><title>cluster_\Tazorax\MathUtils\TwoD</title>
<polyline fill="none" stroke="gray" points="44,-304 311,-304 "/>
<path fill="none" stroke="gray" d="M311,-304C317,-304 323,-310 323,-316"/>
<polyline fill="none" stroke="gray" points="323,-316 323,-582 "/>
<path fill="none" stroke="gray" d="M323,-582C323,-588 317,-594 311,-594"/>
<polyline fill="none" stroke="gray" points="311,-594 44,-594 "/>
<path fill="none" stroke="gray" d="M44,-594C38,-594 32,-588 32,-582"/>
<polyline fill="none" stroke="gray" points="32,-582 32,-316 "/>
<path fill="none" stroke="gray" d="M32,-316C32,-310 38,-304 44,-304"/>
<text text-anchor="middle" x="177.5" y="-580.1" font-family="Times Roman,serif" font-size="11.00" fill="gray">TwoD</text>
</g>
<g id="graph7" class="cluster"><title>cluster_\Tazorax\MathUtils\Arithmetic</title>
<polyline fill="none" stroke="gray" points="211,-114 341,-114 "/>
<path fill="none" stroke="gray" d="M341,-114C347,-114 353,-120 353,-126"/>
<polyline fill="none" stroke="gray" points="353,-126 353,-284 "/>
<path fill="none" stroke="gray" d="M353,-284C353,-290 347,-296 341,-296"/>
<polyline fill="none" stroke="gray" points="341,-296 211,-296 "/>
<path fill="none" stroke="gray" d="M211,-296C205,-296 199,-290 199,-284"/>
<polyline fill="none" stroke="gray" points="199,-284 199,-126 "/>
<path fill="none" stroke="gray" d="M199,-126C199,-120 205,-114 211,-114"/>
<text text-anchor="middle" x="276" y="-282.1" font-family="Times Roman,serif" font-size="11.00" fill="gray">Arithmetic</text>
</g>
<!-- \\Tazorax\\MathUtils\\ThreeD\\Vector3d -->
<g id="node5" class="node"><title>\\Tazorax\\MathUtils\\ThreeD\\Vector3d</title>
<polygon fill="none" stroke="black" points="311,-754 241,-754 241,-718 311,-718 311,-754"/>
<text text-anchor="middle" x="276" y="-733.1" font-family="Courier,monospace" font-size="11.00">Vector3d</text>
</g>
<!-- \\Tazorax\\MathUtils\\ThreeD\\Point3d -->
<g id="node6" class="node"><title>\\Tazorax\\MathUtils\\ThreeD\\Point3d</title>
<polygon fill="none" stroke="black" points="308,-700 244,-700 244,-664 308,-664 308,-700"/>
<text text-anchor="middle" x="276" y="-679.1" font-family="Courier,monospace" font-size="11.00">Point3d</text>
</g>
<!-- \\Tazorax\\MathUtils\\ThreeD\\Matrix3d -->
<g id="node7" class="node"><title>\\Tazorax\\MathUtils\\ThreeD\\Matrix3d</title>
<polygon fill="none" stroke="black" points="311,-646 241,-646 241,-610 311,-610 311,-646"/>
<text text-anchor="middle" x="276" y="-625.1" font-family="Courier,monospace" font-size="11.00">Matrix3d</text>
</g>
<!-- \\Tazorax\\MathUtils\\TwoD\\Rectangle -->
<g id="node9" class="node"><title>\\Tazorax\\MathUtils\\TwoD\\Rectangle</title>
<polygon fill="none" stroke="black" points="314,-564 238,-564 238,-528 314,-528 314,-564"/>
<text text-anchor="middle" x="276" y="-543.1" font-family="Courier,monospace" font-size="11.00">Rectangle</text>
</g>
<!-- \\Tazorax\\MathUtils\\TwoD\\Polygon -->
<g id="node11" class="node"><title>\\Tazorax\\MathUtils\\TwoD\\Polygon</title>
<polygon fill="none" stroke="black" points="104,-537 40,-537 40,-501 104,-501 104,-537"/>
<text text-anchor="middle" x="72" y="-516.1" font-family="Courier,monospace" font-size="11.00">Polygon</text>
</g>
<!-- \\Tazorax\\MathUtils\\TwoD\\Rectangle&#45;&gt;\\Tazorax\\MathUtils\\TwoD\\Polygon -->
<g id="edge10" class="edge"><title>\\Tazorax\\MathUtils\\TwoD\\Rectangle&#45;&gt;\\Tazorax\\MathUtils\\TwoD\\Polygon</title>
<path fill="none" stroke="black" d="M237.149,-540.858C202.007,-536.207 150.376,-529.373 114.225,-524.589"/>
<polygon fill="none" stroke="black" points="114.376,-521.078 104.003,-523.236 113.457,-528.018 114.376,-521.078"/>
</g>
<!-- \\Tazorax\\MathUtils\\TwoD\\Triangle -->
<g id="node10" class="node"><title>\\Tazorax\\MathUtils\\TwoD\\Triangle</title>
<polygon fill="none" stroke="black" points="311,-510 241,-510 241,-474 311,-474 311,-510"/>
<text text-anchor="middle" x="276" y="-489.1" font-family="Courier,monospace" font-size="11.00">Triangle</text>
</g>
<!-- \\Tazorax\\MathUtils\\TwoD\\Triangle&#45;&gt;\\Tazorax\\MathUtils\\TwoD\\Polygon -->
<g id="edge12" class="edge"><title>\\Tazorax\\MathUtils\\TwoD\\Triangle&#45;&gt;\\Tazorax\\MathUtils\\TwoD\\Polygon</title>
<path fill="none" stroke="black" d="M240.466,-496.703C205.302,-501.357 151.47,-508.482 114.162,-513.42"/>
<polygon fill="none" stroke="black" points="113.561,-509.969 104.106,-514.751 114.479,-516.908 113.561,-509.969"/>
</g>
<!-- \\Tazorax\\MathUtils\\TwoD\\Point2d -->
<g id="node12" class="node"><title>\\Tazorax\\MathUtils\\TwoD\\Point2d</title>
<polygon fill="none" stroke="black" points="308,-456 244,-456 244,-420 308,-420 308,-456"/>
<text text-anchor="middle" x="276" y="-435.1" font-family="Courier,monospace" font-size="11.00">Point2d</text>
</g>
<!-- \\Tazorax\\MathUtils\\TwoD\\Vector2d -->
<g id="node13" class="node"><title>\\Tazorax\\MathUtils\\TwoD\\Vector2d</title>
<polygon fill="none" stroke="black" points="311,-402 241,-402 241,-366 311,-366 311,-402"/>
<text text-anchor="middle" x="276" y="-381.1" font-family="Courier,monospace" font-size="11.00">Vector2d</text>
</g>
<!-- \\Tazorax\\MathUtils\\TwoD\\Utils -->
<g id="node14" class="node"><title>\\Tazorax\\MathUtils\\TwoD\\Utils</title>
<polygon fill="none" stroke="black" points="303,-348 249,-348 249,-312 303,-312 303,-348"/>
<text text-anchor="middle" x="276" y="-327.1" font-family="Courier,monospace" font-size="11.00">Utils</text>
</g>
<!-- \\Tazorax\\MathUtils\\Arithmetic\\Fraction -->
<g id="node16" class="node"><title>\\Tazorax\\MathUtils\\Arithmetic\\Fraction</title>
<polygon fill="none" stroke="black" points="311,-266 241,-266 241,-230 311,-230 311,-266"/>
<text text-anchor="middle" x="276" y="-245.1" font-family="Courier,monospace" font-size="11.00">Fraction</text>
</g>
<!-- \\Tazorax\\MathUtils\\Arithmetic\\Utils -->
<g id="node17" class="node"><title>\\Tazorax\\MathUtils\\Arithmetic\\Utils</title>
<polygon fill="none" stroke="black" points="303,-212 249,-212 249,-176 303,-176 303,-212"/>
<text text-anchor="middle" x="276" y="-191.1" font-family="Courier,monospace" font-size="11.00">Utils</text>
</g>
<!-- \\Tazorax\\MathUtils\\Arithmetic\\FractionCollection -->
<g id="node18" class="node"><title>\\Tazorax\\MathUtils\\Arithmetic\\FractionCollection</title>
<polygon fill="none" stroke="black" points="345,-158 207,-158 207,-122 345,-122 345,-158"/>
<text text-anchor="middle" x="276" y="-137.1" font-family="Courier,monospace" font-size="11.00">FractionCollection</text>
</g>
<!-- \\Tazorax\\MathUtils\\Exception -->
<g id="node19" class="node"><title>\\Tazorax\\MathUtils\\Exception</title>
<polygon fill="none" stroke="black" points="314,-104 238,-104 238,-68 314,-68 314,-104"/>
<text text-anchor="middle" x="276" y="-83.1" font-family="Courier,monospace" font-size="11.00">Exception</text>
</g>
<!-- \\Exception -->
<g id="node21" class="node"><title>\\Exception</title>
<ellipse fill="none" stroke="black" cx="72" cy="-18" rx="62.9325" ry="18.3848"/>
<text text-anchor="middle" x="72" y="-14.4" font-family="Times Roman,serif" font-size="14.00" fill="gray">\Exception</text>
</g>
<!-- \\Tazorax\\MathUtils\\Exception&#45;&gt;\\Exception -->
<g id="edge8" class="edge"><title>\\Tazorax\\MathUtils\\Exception&#45;&gt;\\Exception</title>
<path fill="none" stroke="black" d="M237.149,-73.0497C204.709,-62.2363 158.219,-46.7396 122.825,-34.9415"/>
<polygon fill="none" stroke="black" points="123.75,-31.5609 113.157,-31.7189 121.537,-38.2017 123.75,-31.5609"/>
</g>
</g>
</svg>
