<?xml version="1.0" encoding="UTF-8" standalone="no"?>
<!DOCTYPE svg PUBLIC "-//W3C//DTD SVG 1.1//EN"
 "http://www.w3.org/Graphics/SVG/1.1/DTD/svg11.dtd">
<!-- Generated by graphviz version 2.26.3 (20100126.1600)
 -->
<!-- Title: G Pages: 1 -->
<svg width="393pt" height="836pt"
 viewBox="0.00 0.00 393.00 836.00" xmlns="http://www.w3.org/2000/svg" xmlns:xlink="http://www.w3.org/1999/xlink">
<g id="graph1" class="graph" transform="scale(1 1) rotate(0) translate(4 832)">
<title>G</title>
<polygon fill="white" stroke="white" points="-4,5 -4,-832 390,-832 390,5 -4,5"/>
<g id="graph2" class="cluster"><title>cluster_Global</title>
<polyline fill="none" stroke="gray" points="20,-44 365,-44 "/>
<path fill="none" stroke="gray" d="M365,-44C371,-44 377,-50 377,-56"/>
<polyline fill="none" stroke="gray" points="377,-56 377,-808 "/>
<path fill="none" stroke="gray" d="M377,-808C377,-814 371,-820 365,-820"/>
<polyline fill="none" stroke="gray" points="365,-820 20,-820 "/>
<path fill="none" stroke="gray" d="M20,-820C14,-820 8,-814 8,-808"/>
<polyline fill="none" stroke="gray" points="8,-808 8,-56 "/>
<path fill="none" stroke="gray" d="M8,-56C8,-50 14,-44 20,-44"/>
<text text-anchor="middle" x="192.5" y="-806.1" font-family="Times Roman,serif" font-size="11.00" fill="gray">Global</text>
</g>
<g id="graph3" class="cluster"><title>cluster_\Tazorax</title>
<polyline fill="none" stroke="gray" points="28,-52 357,-52 "/>
<path fill="none" stroke="gray" d="M357,-52C363,-52 369,-58 369,-64"/>
<polyline fill="none" stroke="gray" points="369,-64 369,-778 "/>
<path fill="none" stroke="gray" d="M369,-778C369,-784 363,-790 357,-790"/>
<polyline fill="none" stroke="gray" points="357,-790 28,-790 "/>
<path fill="none" stroke="gray" d="M28,-790C22,-790 16,-784 16,-778"/>
<polyline fill="none" stroke="gray" points="16,-778 16,-64 "/>
<path fill="none" stroke="gray" d="M16,-64C16,-58 22,-52 28,-52"/>
<text text-anchor="middle" x="192.5" y="-776.1" font-family="Times Roman,serif" font-size="11.00" fill="gray">Tazorax</text>
</g>
<g id="graph4" class="cluster"><title>cluster_\Tazorax\MathUtils</title>
<polyline fill="none" stroke="gray" points="36,-60 349,-60 "/>
<path fill="none" stroke="gray" d="M349,-60C355,-60 361,-66 361,-72"/>
<polyline fill="none" stroke="gray" points="361,-72 361,-748 "/>
<path fill="none" stroke="gray" d="M361,-748C361,-754 355,-760 349,-760"/>
<polyline fill="none" stroke="gray" points="349,-760 36,-760 "/>
<path fill="none" stroke="gray" d="M36,-760C30,-760 24,-754 24,-748"/>
<polyline fill="none" stroke="gray" points="24,-748 24,-72 "/>
<path fill="none" stroke="gray" d="M24,-72C24,-66 30,-60 36,-60"/>
<text text-anchor="middle" x="192.5" y="-746.1" font-family="Times Roman,serif" font-size="11.00" fill="gray">MathUtils</text>
</g>
<g id="graph5" class="cluster"><title>cluster_\Tazorax\MathUtils\ThreeD</title>
<polyline fill="none" stroke="gray" points="244,-548 308,-548 "/>
<path fill="none" stroke="gray" d="M308,-548C314,-548 320,-554 320,-560"/>
<polyline fill="none" stroke="gray" points="320,-560 320,-718 "/>
<path fill="none" stroke="gray" d="M320,-718C320,-724 314,-730 308,-730"/>
<polyline fill="none" stroke="gray" points="308,-730 244,-730 "/>
<path fill="none" stroke="gray" d="M244,-730C238,-730 232,-724 232,-718"/>
<polyline fill="none" stroke="gray" points="232,-718 232,-560 "/>
<path fill="none" stroke="gray" d="M232,-560C232,-554 238,-548 244,-548"/>
<text text-anchor="middle" x="276" y="-716.1" font-family="Times Roman,serif" font-size="11.00" fill="gray">ThreeD</text>
</g>
<g id="graph6" class="cluster"><title>cluster_\Tazorax\MathUtils\TwoD</title>
<polyline fill="none" stroke="gray" points="44,-304 311,-304 "/>
<path fill="none" stroke="gray" d="M311,-304C317,-304 323,-310 323,-316"/>
<polyline fill="none" stroke="gray" points="323,-316 323,-528 "/>
<path fill="none" stroke="gray" d="M323,-528C323,-534 317,-540 311,-540"/>
<polyline fill="none" stroke="gray" points="311,-540 44,-540 "/>
<path fill="none" stroke="gray" d="M44,-540C38,-540 32,-534 32,-528"/>
<polyline fill="none" stroke="gray" points="32,-528 32,-316 "/>
<path fill="none" stroke="gray" d="M32,-316C32,-310 38,-304 44,-304"/>
<text text-anchor="middle" x="177.5" y="-526.1" font-family="Times Roman,serif" font-size="11.00" fill="gray">TwoD</text>
</g>
<g id="graph7" class="cluster"><title>cluster_\Tazorax\MathUtils\Arithmetic</title>
<polyline fill="none" stroke="gray" points="211,-114 341,-114 "/>
<path fill="none" stroke="gray" d="M341,-114C347,-114 353,-120 353,-126"/>
<polyline fill="none" stroke="gray" points="353,-126 353,-284 "/>
<path fill="none" stroke="gray" d="M353,-284C353,-290 347,-296 341,-296"/>
<polyline fill="none" stroke="gray" points="341,-296 211,-296 "/>
<path fill="none" stroke="gray" d="M211,-296C205,-296 199,-290 199,-284"/>
<polyline fill="none" stroke="gray" points="199,-284 199,-126 "/>
<path fill="none" stroke="gray" d="M199,-126C199,-120 205,-114 211,-114"/>
<text text-anchor="middle" x="276" y="-282.1" font-family="Times Roman,serif" font-size="11.00" fill="gray">Arithmetic</text>
</g>
<!-- \\Tazorax\\MathUtils\\ThreeD\\Vector3d -->
<g id="node5" class="node"><title>\\Tazorax\\MathUtils\\ThreeD\\Vector3d</title>
<polygon fill="none" stroke="black" points="311,-700 241,-700 241,-664 311,-664 311,-700"/>
<text text-anchor="middle" x="276" y="-679.1" font-family="Courier,monospace" font-size="11.00">Vector3d</text>
</g>
<!-- \\Tazorax\\MathUtils\\ThreeD\\Point3d -->
<g id="node6" class="node"><title>\\Tazorax\\MathUtils\\ThreeD\\Point3d</title>
<polygon fill="none" stroke="black" points="308,-646 244,-646 244,-610 308,-610 308,-646"/>
<text text-anchor="middle" x="276" y="-625.1" font-family="Courier,monospace" font-size="11.00">Point3d</text>
</g>
<!-- \\Tazorax\\MathUtils\\ThreeD\\Matrix3d -->
<g id="node7" class="node"><title>\\Tazorax\\MathUtils\\ThreeD\\Matrix3d</title>
<polygon fill="none" stroke="black" points="311,-592 241,-592 241,-556 311,-556 311,-592"/>
<text text-anchor="middle" x="276" y="-571.1" font-family="Courier,monospace" font-size="11.00">Matrix3d</text>
</g>
<!-- \\Tazorax\\MathUtils\\TwoD\\Rectangle -->
<g id="node9" class="node"><title>\\Tazorax\\MathUtils\\TwoD\\Rectangle</title>
<polygon fill="none" stroke="black" points="314,-510 238,-510 238,-474 314,-474 314,-510"/>
<text text-anchor="middle" x="276" y="-489.1" font-family="Courier,monospace" font-size="11.00">Rectangle</text>
</g>
<!-- \\Tazorax\\MathUtils\\TwoD\\Polygon -->
<g id="node11" class="node"><title>\\Tazorax\\MathUtils\\TwoD\\Polygon</title>
<polygon fill="none" stroke="black" points="104,-483 40,-483 40,-447 104,-447 104,-483"/>
<text text-anchor="middle" x="72" y="-462.1" font-family="Courier,monospace" font-size="11.00">Polygon</text>
</g>
<!-- \\Tazorax\\MathUtils\\TwoD\\Rectangle&#45;&gt;\\Tazorax\\MathUtils\\TwoD\\Polygon -->
<g id="edge10" class="edge"><title>\\Tazorax\\MathUtils\\TwoD\\Rectangle&#45;&gt;\\Tazorax\\MathUtils\\TwoD\\Polygon</title>
<path fill="none" stroke="black" d="M237.149,-486.858C202.007,-482.207 150.376,-475.373 114.225,-470.589"/>
<polygon fill="none" stroke="black" points="114.376,-467.078 104.003,-469.236 113.457,-474.018 114.376,-467.078"/>
</g>
<!-- \\Tazorax\\MathUtils\\TwoD\\Triangle -->
<g id="node10" class="node"><title>\\Tazorax\\MathUtils\\TwoD\\Triangle</title>
<polygon fill="none" stroke="black" points="311,-456 241,-456 241,-420 311,-420 311,-456"/>
<text text-anchor="middle" x="276" y="-435.1" font-family="Courier,monospace" font-size="11.00">Triangle</text>
</g>
<!-- \\Tazorax\\MathUtils\\TwoD\\Triangle&#45;&gt;\\Tazorax\\MathUtils\\TwoD\\Polygon -->
<g id="edge12" class="edge"><title>\\Tazorax\\MathUtils\\TwoD\\Triangle&#45;&gt;\\Tazorax\\MathUtils\\TwoD\\Polygon</title>
<path fill="none" stroke="black" d="M240.466,-442.703C205.302,-447.357 151.47,-454.482 114.162,-459.42"/>
<polygon fill="none" stroke="black" points="113.561,-455.969 104.106,-460.751 114.479,-462.908 113.561,-455.969"/>
</g>
<!-- \\Tazorax\\MathUtils\\TwoD\\Point2d -->
<g id="node12" class="node"><title>\\Tazorax\\MathUtils\\TwoD\\Point2d</title>
<polygon fill="none" stroke="black" points="308,-402 244,-402 244,-366 308,-366 308,-402"/>
<text text-anchor="middle" x="276" y="-381.1" font-family="Courier,monospace" font-size="11.00">Point2d</text>
</g>
<!-- \\Tazorax\\MathUtils\\TwoD\\Vector2d -->
<g id="node13" class="node"><title>\\Tazorax\\MathUtils\\TwoD\\Vector2d</title>
<polygon fill="none" stroke="black" points="311,-348 241,-348 241,-312 311,-312 311,-348"/>
<text text-anchor="middle" x="276" y="-327.1" font-family="Courier,monospace" font-size="11.00">Vector2d</text>
</g>
<!-- \\Tazorax\\MathUtils\\Arithmetic\\Fraction -->
<g id="node15" class="node"><title>\\Tazorax\\MathUtils\\Arithmetic\\Fraction</title>
<polygon fill="none" stroke="black" points="311,-266 241,-266 241,-230 311,-230 311,-266"/>
<text text-anchor="middle" x="276" y="-245.1" font-family="Courier,monospace" font-size="11.00">Fraction</text>
</g>
<!-- \\Tazorax\\MathUtils\\Arithmetic\\Utils -->
<g id="node16" class="node"><title>\\Tazorax\\MathUtils\\Arithmetic\\Utils</title>
<polygon fill="none" stroke="black" points="303,-212 249,-212 249,-176 303,-176 303,-212"/>
<text text-anchor="middle" x="276" y="-191.1" font-family="Courier,monospace" font-size="11.00">Utils</text>
</g>
<!-- \\Tazorax\\MathUtils\\Arithmetic\\FractionCollection -->
<g id="node17" class="node"><title>\\Tazorax\\MathUtils\\Arithmetic\\FractionCollection</title>
<polygon fill="none" stroke="black" points="345,-158 207,-158 207,-122 345,-122 345,-158"/>
<text text-anchor="middle" x="276" y="-137.1" font-family="Courier,monospace" font-size="11.00">FractionCollection</text>
</g>
<!-- \\Tazorax\\MathUtils\\Exception -->
<g id="node18" class="node"><title>\\Tazorax\\MathUtils\\Exception</title>
<polygon fill="none" stroke="black" points="314,-104 238,-104 238,-68 314,-68 314,-104"/>
<text text-anchor="middle" x="276" y="-83.1" font-family="Courier,monospace" font-size="11.00">Exception</text>
</g>
<!-- \\Exception -->
<g id="node20" class="node"><title>\\Exception</title>
<ellipse fill="none" stroke="black" cx="72" cy="-18" rx="62.9325" ry="18.3848"/>
<text text-anchor="middle" x="72" y="-14.4" font-family="Times Roman,serif" font-size="14.00" fill="gray">\Exception</text>
</g>
<!-- \\Tazorax\\MathUtils\\Exception&#45;&gt;\\Exception -->
<g id="edge8" class="edge"><title>\\Tazorax\\MathUtils\\Exception&#45;&gt;\\Exception</title>
<path fill="none" stroke="black" d="M237.149,-73.0497C204.709,-62.2363 158.219,-46.7396 122.825,-34.9415"/>
<polygon fill="none" stroke="black" points="123.75,-31.5609 113.157,-31.7189 121.537,-38.2017 123.75,-31.5609"/>
</g>
</g>
</svg>
