<?xml version="1.0" encoding="UTF-8" standalone="no"?>
<!DOCTYPE svg PUBLIC "-//W3C//DTD SVG 1.1//EN"
 "http://www.w3.org/Graphics/SVG/1.1/DTD/svg11.dtd">
<!-- Generated by graphviz version 2.26.3 (20100126.1600)
 -->
<!-- Title: G Pages: 1 -->
<svg width="406pt" height="836pt"
 viewBox="0.00 0.00 406.00 836.00" xmlns="http://www.w3.org/2000/svg" xmlns:xlink="http://www.w3.org/1999/xlink">
<g id="graph1" class="graph" transform="scale(1 1) rotate(0) translate(4 832)">
<title>G</title>
<polygon fill="white" stroke="white" points="-4,5 -4,-832 403,-832 403,5 -4,5"/>
<g id="graph2" class="cluster"><title>cluster_Global</title>
<polyline fill="none" stroke="gray" points="22,-44 378,-44 "/>
<path fill="none" stroke="gray" d="M378,-44C384,-44 390,-50 390,-56"/>
<polyline fill="none" stroke="gray" points="390,-56 390,-808 "/>
<path fill="none" stroke="gray" d="M390,-808C390,-814 384,-820 378,-820"/>
<polyline fill="none" stroke="gray" points="378,-820 22,-820 "/>
<path fill="none" stroke="gray" d="M22,-820C16,-820 10,-814 10,-808"/>
<polyline fill="none" stroke="gray" points="10,-808 10,-56 "/>
<path fill="none" stroke="gray" d="M10,-56C10,-50 16,-44 22,-44"/>
<text text-anchor="middle" x="200" y="-806.1" font-family="Times Roman,serif" font-size="11.00" fill="gray">Global</text>
</g>
<g id="graph3" class="cluster"><title>cluster_\Tazorax</title>
<polyline fill="none" stroke="gray" points="30,-52 370,-52 "/>
<path fill="none" stroke="gray" d="M370,-52C376,-52 382,-58 382,-64"/>
<polyline fill="none" stroke="gray" points="382,-64 382,-778 "/>
<path fill="none" stroke="gray" d="M382,-778C382,-784 376,-790 370,-790"/>
<polyline fill="none" stroke="gray" points="370,-790 30,-790 "/>
<path fill="none" stroke="gray" d="M30,-790C24,-790 18,-784 18,-778"/>
<polyline fill="none" stroke="gray" points="18,-778 18,-64 "/>
<path fill="none" stroke="gray" d="M18,-64C18,-58 24,-52 30,-52"/>
<text text-anchor="middle" x="200" y="-776.1" font-family="Times Roman,serif" font-size="11.00" fill="gray">Tazorax</text>
</g>
<g id="graph4" class="cluster"><title>cluster_\Tazorax\MathUtils</title>
<polyline fill="none" stroke="gray" points="38,-60 362,-60 "/>
<path fill="none" stroke="gray" d="M362,-60C368,-60 374,-66 374,-72"/>
<polyline fill="none" stroke="gray" points="374,-72 374,-748 "/>
<path fill="none" stroke="gray" d="M374,-748C374,-754 368,-760 362,-760"/>
<polyline fill="none" stroke="gray" points="362,-760 38,-760 "/>
<path fill="none" stroke="gray" d="M38,-760C32,-760 26,-754 26,-748"/>
<polyline fill="none" stroke="gray" points="26,-748 26,-72 "/>
<path fill="none" stroke="gray" d="M26,-72C26,-66 32,-60 38,-60"/>
<text text-anchor="middle" x="200" y="-746.1" font-family="Times Roman,serif" font-size="11.00" fill="gray">MathUtils</text>
</g>
<g id="graph5" class="cluster"><title>cluster_\Tazorax\MathUtils\TwoD</title>
<polyline fill="none" stroke="gray" points="46,-494 324,-494 "/>
<path fill="none" stroke="gray" d="M324,-494C330,-494 336,-500 336,-506"/>
<polyline fill="none" stroke="gray" points="336,-506 336,-718 "/>
<path fill="none" stroke="gray" d="M336,-718C336,-724 330,-730 324,-730"/>
<polyline fill="none" stroke="gray" points="324,-730 46,-730 "/>
<path fill="none" stroke="gray" d="M46,-730C40,-730 34,-724 34,-718"/>
<polyline fill="none" stroke="gray" points="34,-718 34,-506 "/>
<path fill="none" stroke="gray" d="M34,-506C34,-500 40,-494 46,-494"/>
<text text-anchor="middle" x="185" y="-716.1" font-family="Times Roman,serif" font-size="11.00" fill="gray">TwoD</text>
</g>
<g id="graph6" class="cluster"><title>cluster_\Tazorax\MathUtils\Arithmetic</title>
<polyline fill="none" stroke="gray" points="224,-304 354,-304 "/>
<path fill="none" stroke="gray" d="M354,-304C360,-304 366,-310 366,-316"/>
<polyline fill="none" stroke="gray" points="366,-316 366,-474 "/>
<path fill="none" stroke="gray" d="M366,-474C366,-480 360,-486 354,-486"/>
<polyline fill="none" stroke="gray" points="354,-486 224,-486 "/>
<path fill="none" stroke="gray" d="M224,-486C218,-486 212,-480 212,-474"/>
<polyline fill="none" stroke="gray" points="212,-474 212,-316 "/>
<path fill="none" stroke="gray" d="M212,-316C212,-310 218,-304 224,-304"/>
<text text-anchor="middle" x="289" y="-472.1" font-family="Times Roman,serif" font-size="11.00" fill="gray">Arithmetic</text>
</g>
<g id="graph7" class="cluster"><title>cluster_\Tazorax\MathUtils\ThreeD</title>
<polyline fill="none" stroke="gray" points="257,-114 321,-114 "/>
<path fill="none" stroke="gray" d="M321,-114C327,-114 333,-120 333,-126"/>
<polyline fill="none" stroke="gray" points="333,-126 333,-284 "/>
<path fill="none" stroke="gray" d="M333,-284C333,-290 327,-296 321,-296"/>
<polyline fill="none" stroke="gray" points="321,-296 257,-296 "/>
<path fill="none" stroke="gray" d="M257,-296C251,-296 245,-290 245,-284"/>
<polyline fill="none" stroke="gray" points="245,-284 245,-126 "/>
<path fill="none" stroke="gray" d="M245,-126C245,-120 251,-114 257,-114"/>
<text text-anchor="middle" x="289" y="-282.1" font-family="Times Roman,serif" font-size="11.00" fill="gray">ThreeD</text>
</g>
<!-- \\Tazorax\\MathUtils\\TwoD\\Vector2d -->
<g id="node5" class="node"><title>\\Tazorax\\MathUtils\\TwoD\\Vector2d</title>
<polygon fill="none" stroke="black" points="324,-700 254,-700 254,-664 324,-664 324,-700"/>
<text text-anchor="middle" x="289" y="-679.1" font-family="Courier,monospace" font-size="11.00">Vector2d</text>
</g>
<!-- \\Tazorax\\MathUtils\\TwoD\\Point2d -->
<g id="node6" class="node"><title>\\Tazorax\\MathUtils\\TwoD\\Point2d</title>
<polygon fill="none" stroke="black" points="321,-646 257,-646 257,-610 321,-610 321,-646"/>
<text text-anchor="middle" x="289" y="-625.1" font-family="Courier,monospace" font-size="11.00">Point2d</text>
</g>
<!-- \\Tazorax\\MathUtils\\TwoD\\Polygon -->
<g id="node7" class="node"><title>\\Tazorax\\MathUtils\\TwoD\\Polygon</title>
<polygon fill="none" stroke="black" points="106,-565 42,-565 42,-529 106,-529 106,-565"/>
<text text-anchor="middle" x="74" y="-544.1" font-family="Courier,monospace" font-size="11.00">Polygon</text>
</g>
<!-- \\Tazorax\\MathUtils\\TwoD\\Triangle -->
<g id="node8" class="node"><title>\\Tazorax\\MathUtils\\TwoD\\Triangle</title>
<polygon fill="none" stroke="black" points="324,-592 254,-592 254,-556 324,-556 324,-592"/>
<text text-anchor="middle" x="289" y="-571.1" font-family="Courier,monospace" font-size="11.00">Triangle</text>
</g>
<!-- \\Tazorax\\MathUtils\\TwoD\\Triangle&#45;&gt;\\Tazorax\\MathUtils\\TwoD\\Polygon -->
<g id="edge10" class="edge"><title>\\Tazorax\\MathUtils\\TwoD\\Triangle&#45;&gt;\\Tazorax\\MathUtils\\TwoD\\Polygon</title>
<path fill="none" stroke="black" d="M253.497,-569.541C215.754,-564.802 156.096,-557.31 116.032,-552.278"/>
<polygon fill="none" stroke="black" points="116.401,-548.797 106.043,-551.024 115.528,-555.743 116.401,-548.797"/>
</g>
<!-- \\Tazorax\\MathUtils\\TwoD\\Rectangle -->
<g id="node9" class="node"><title>\\Tazorax\\MathUtils\\TwoD\\Rectangle</title>
<polygon fill="none" stroke="black" points="327,-538 251,-538 251,-502 327,-502 327,-538"/>
<text text-anchor="middle" x="289" y="-517.1" font-family="Courier,monospace" font-size="11.00">Rectangle</text>
</g>
<!-- \\Tazorax\\MathUtils\\TwoD\\Rectangle&#45;&gt;\\Tazorax\\MathUtils\\TwoD\\Polygon -->
<g id="edge12" class="edge"><title>\\Tazorax\\MathUtils\\TwoD\\Rectangle&#45;&gt;\\Tazorax\\MathUtils\\TwoD\\Polygon</title>
<path fill="none" stroke="black" d="M250.065,-524.889C212.297,-529.632 155.149,-536.809 116.284,-541.69"/>
<polygon fill="none" stroke="black" points="115.815,-538.221 106.329,-542.94 116.688,-545.167 115.815,-538.221"/>
</g>
<!-- \\Tazorax\\MathUtils\\Arithmetic\\Fraction -->
<g id="node11" class="node"><title>\\Tazorax\\MathUtils\\Arithmetic\\Fraction</title>
<polygon fill="none" stroke="black" points="324,-456 254,-456 254,-420 324,-420 324,-456"/>
<text text-anchor="middle" x="289" y="-435.1" font-family="Courier,monospace" font-size="11.00">Fraction</text>
</g>
<!-- \\Tazorax\\MathUtils\\Arithmetic\\FractionCollection -->
<g id="node12" class="node"><title>\\Tazorax\\MathUtils\\Arithmetic\\FractionCollection</title>
<polygon fill="none" stroke="black" points="358,-402 220,-402 220,-366 358,-366 358,-402"/>
<text text-anchor="middle" x="289" y="-381.1" font-family="Courier,monospace" font-size="11.00">FractionCollection</text>
</g>
<!-- \\Tazorax\\MathUtils\\Arithmetic\\Utils -->
<g id="node13" class="node"><title>\\Tazorax\\MathUtils\\Arithmetic\\Utils</title>
<polygon fill="none" stroke="black" points="316,-348 262,-348 262,-312 316,-312 316,-348"/>
<text text-anchor="middle" x="289" y="-327.1" font-family="Courier,monospace" font-size="11.00">Utils</text>
</g>
<!-- \\Tazorax\\MathUtils\\ThreeD\\Matrix3d -->
<g id="node15" class="node"><title>\\Tazorax\\MathUtils\\ThreeD\\Matrix3d</title>
<polygon fill="none" stroke="black" points="324,-266 254,-266 254,-230 324,-230 324,-266"/>
<text text-anchor="middle" x="289" y="-245.1" font-family="Courier,monospace" font-size="11.00">Matrix3d</text>
</g>
<!-- \\Tazorax\\MathUtils\\ThreeD\\Vector3d -->
<g id="node16" class="node"><title>\\Tazorax\\MathUtils\\ThreeD\\Vector3d</title>
<polygon fill="none" stroke="black" points="324,-212 254,-212 254,-176 324,-176 324,-212"/>
<text text-anchor="middle" x="289" y="-191.1" font-family="Courier,monospace" font-size="11.00">Vector3d</text>
</g>
<!-- \\Tazorax\\MathUtils\\ThreeD\\Point3d -->
<g id="node17" class="node"><title>\\Tazorax\\MathUtils\\ThreeD\\Point3d</title>
<polygon fill="none" stroke="black" points="321,-158 257,-158 257,-122 321,-122 321,-158"/>
<text text-anchor="middle" x="289" y="-137.1" font-family="Courier,monospace" font-size="11.00">Point3d</text>
</g>
<!-- \\Tazorax\\MathUtils\\Exception -->
<g id="node18" class="node"><title>\\Tazorax\\MathUtils\\Exception</title>
<polygon fill="none" stroke="black" points="327,-104 251,-104 251,-68 327,-68 327,-104"/>
<text text-anchor="middle" x="289" y="-83.1" font-family="Courier,monospace" font-size="11.00">Exception</text>
</g>
<!-- \\Exception -->
<g id="node20" class="node"><title>\\Exception</title>
<ellipse fill="none" stroke="black" cx="74" cy="-18" rx="73.0388" ry="18.3848"/>
<text text-anchor="middle" x="74" y="-14.4" font-family="Times Roman,serif" font-size="14.00" fill="gray">TEHxception</text>
</g>
<!-- \\Tazorax\\MathUtils\\Exception&#45;&gt;\\Exception -->
<g id="edge8" class="edge"><title>\\Tazorax\\MathUtils\\Exception&#45;&gt;\\Exception</title>
<path fill="none" stroke="black" d="M250.065,-73.6857C216.296,-63.0052 167.034,-47.4246 129.2,-35.4584"/>
<polygon fill="none" stroke="black" points="129.94,-32.0217 119.35,-32.3431 127.829,-38.6958 129.94,-32.0217"/>
</g>
</g>
</svg>
