<?xml version="1.0" encoding="UTF-8" standalone="no"?>
<!DOCTYPE svg PUBLIC "-//W3C//DTD SVG 1.1//EN"
 "http://www.w3.org/Graphics/SVG/1.1/DTD/svg11.dtd">
<!-- Generated by graphviz version 2.26.3 (20100126.1600)
 -->
<!-- Title: G Pages: 1 -->
<svg width="362pt" height="754pt"
 viewBox="0.00 0.00 362.00 754.00" xmlns="http://www.w3.org/2000/svg" xmlns:xlink="http://www.w3.org/1999/xlink">
<g id="graph1" class="graph" transform="scale(1 1) rotate(0) translate(4 750)">
<title>G</title>
<polygon fill="white" stroke="white" points="-4,5 -4,-750 359,-750 359,5 -4,5"/>
<g id="graph2" class="cluster"><title>cluster_Global</title>
<polyline fill="none" stroke="gray" points="20,-8 334,-8 "/>
<path fill="none" stroke="gray" d="M334,-8C340,-8 346,-14 346,-20"/>
<polyline fill="none" stroke="gray" points="346,-20 346,-726 "/>
<path fill="none" stroke="gray" d="M346,-726C346,-732 340,-738 334,-738"/>
<polyline fill="none" stroke="gray" points="334,-738 20,-738 "/>
<path fill="none" stroke="gray" d="M20,-738C14,-738 8,-732 8,-726"/>
<polyline fill="none" stroke="gray" points="8,-726 8,-20 "/>
<path fill="none" stroke="gray" d="M8,-20C8,-14 14,-8 20,-8"/>
<text text-anchor="middle" x="177" y="-724.1" font-family="Times Roman,serif" font-size="11.00" fill="gray">Global</text>
</g>
<g id="graph3" class="cluster"><title>cluster_\Tazorax</title>
<polyline fill="none" stroke="gray" points="28,-16 326,-16 "/>
<path fill="none" stroke="gray" d="M326,-16C332,-16 338,-22 338,-28"/>
<polyline fill="none" stroke="gray" points="338,-28 338,-696 "/>
<path fill="none" stroke="gray" d="M338,-696C338,-702 332,-708 326,-708"/>
<polyline fill="none" stroke="gray" points="326,-708 28,-708 "/>
<path fill="none" stroke="gray" d="M28,-708C22,-708 16,-702 16,-696"/>
<polyline fill="none" stroke="gray" points="16,-696 16,-28 "/>
<path fill="none" stroke="gray" d="M16,-28C16,-22 22,-16 28,-16"/>
<text text-anchor="middle" x="177" y="-694.1" font-family="Times Roman,serif" font-size="11.00" fill="gray">Tazorax</text>
</g>
<g id="graph4" class="cluster"><title>cluster_\Tazorax\MathUtils</title>
<polyline fill="none" stroke="gray" points="36,-24 318,-24 "/>
<path fill="none" stroke="gray" d="M318,-24C324,-24 330,-30 330,-36"/>
<polyline fill="none" stroke="gray" points="330,-36 330,-666 "/>
<path fill="none" stroke="gray" d="M330,-666C330,-672 324,-678 318,-678"/>
<polyline fill="none" stroke="gray" points="318,-678 36,-678 "/>
<path fill="none" stroke="gray" d="M36,-678C30,-678 24,-672 24,-666"/>
<polyline fill="none" stroke="gray" points="24,-666 24,-36 "/>
<path fill="none" stroke="gray" d="M24,-36C24,-30 30,-24 36,-24"/>
<text text-anchor="middle" x="177" y="-664.1" font-family="Times Roman,serif" font-size="11.00" fill="gray">MathUtils</text>
</g>
<g id="graph5" class="cluster"><title>cluster_\Tazorax\MathUtils\ThreeD</title>
<polyline fill="none" stroke="gray" points="213,-466 277,-466 "/>
<path fill="none" stroke="gray" d="M277,-466C283,-466 289,-472 289,-478"/>
<polyline fill="none" stroke="gray" points="289,-478 289,-636 "/>
<path fill="none" stroke="gray" d="M289,-636C289,-642 283,-648 277,-648"/>
<polyline fill="none" stroke="gray" points="277,-648 213,-648 "/>
<path fill="none" stroke="gray" d="M213,-648C207,-648 201,-642 201,-636"/>
<polyline fill="none" stroke="gray" points="201,-636 201,-478 "/>
<path fill="none" stroke="gray" d="M201,-478C201,-472 207,-466 213,-466"/>
<text text-anchor="middle" x="245" y="-634.1" font-family="Times Roman,serif" font-size="11.00" fill="gray">ThreeD</text>
</g>
<g id="graph6" class="cluster"><title>cluster_\Tazorax\MathUtils\TwoD</title>
<polyline fill="none" stroke="gray" points="44,-222 280,-222 "/>
<path fill="none" stroke="gray" d="M280,-222C286,-222 292,-228 292,-234"/>
<polyline fill="none" stroke="gray" points="292,-234 292,-446 "/>
<path fill="none" stroke="gray" d="M292,-446C292,-452 286,-458 280,-458"/>
<polyline fill="none" stroke="gray" points="280,-458 44,-458 "/>
<path fill="none" stroke="gray" d="M44,-458C38,-458 32,-452 32,-446"/>
<polyline fill="none" stroke="gray" points="32,-446 32,-234 "/>
<path fill="none" stroke="gray" d="M32,-234C32,-228 38,-222 44,-222"/>
<text text-anchor="middle" x="162" y="-444.1" font-family="Times Roman,serif" font-size="11.00" fill="gray">TwoD</text>
</g>
<g id="graph7" class="cluster"><title>cluster_\Tazorax\MathUtils\Arithmetic</title>
<polyline fill="none" stroke="gray" points="180,-32 310,-32 "/>
<path fill="none" stroke="gray" d="M310,-32C316,-32 322,-38 322,-44"/>
<polyline fill="none" stroke="gray" points="322,-44 322,-202 "/>
<path fill="none" stroke="gray" d="M322,-202C322,-208 316,-214 310,-214"/>
<polyline fill="none" stroke="gray" points="310,-214 180,-214 "/>
<path fill="none" stroke="gray" d="M180,-214C174,-214 168,-208 168,-202"/>
<polyline fill="none" stroke="gray" points="168,-202 168,-44 "/>
<path fill="none" stroke="gray" d="M168,-44C168,-38 174,-32 180,-32"/>
<text text-anchor="middle" x="245" y="-200.1" font-family="Times Roman,serif" font-size="11.00" fill="gray">Arithmetic</text>
</g>
<!-- \\Tazorax\\MathUtils\\ThreeD\\Vector3d -->
<g id="node5" class="node"><title>\\Tazorax\\MathUtils\\ThreeD\\Vector3d</title>
<polygon fill="none" stroke="black" points="280,-618 210,-618 210,-582 280,-582 280,-618"/>
<text text-anchor="middle" x="245" y="-597.1" font-family="Courier,monospace" font-size="11.00">Vector3d</text>
</g>
<!-- \\Tazorax\\MathUtils\\ThreeD\\Point3d -->
<g id="node6" class="node"><title>\\Tazorax\\MathUtils\\ThreeD\\Point3d</title>
<polygon fill="none" stroke="black" points="277,-564 213,-564 213,-528 277,-528 277,-564"/>
<text text-anchor="middle" x="245" y="-543.1" font-family="Courier,monospace" font-size="11.00">Point3d</text>
</g>
<!-- \\Tazorax\\MathUtils\\ThreeD\\Matrix3d -->
<g id="node7" class="node"><title>\\Tazorax\\MathUtils\\ThreeD\\Matrix3d</title>
<polygon fill="none" stroke="black" points="280,-510 210,-510 210,-474 280,-474 280,-510"/>
<text text-anchor="middle" x="245" y="-489.1" font-family="Courier,monospace" font-size="11.00">Matrix3d</text>
</g>
<!-- \\Tazorax\\MathUtils\\TwoD\\Rectangle -->
<g id="node9" class="node"><title>\\Tazorax\\MathUtils\\TwoD\\Rectangle</title>
<polygon fill="none" stroke="black" points="283,-428 207,-428 207,-392 283,-392 283,-428"/>
<text text-anchor="middle" x="245" y="-407.1" font-family="Courier,monospace" font-size="11.00">Rectangle</text>
</g>
<!-- \\Tazorax\\MathUtils\\TwoD\\Polygon -->
<g id="node11" class="node"><title>\\Tazorax\\MathUtils\\TwoD\\Polygon</title>
<polygon fill="none" stroke="black" points="104,-401 40,-401 40,-365 104,-365 104,-401"/>
<text text-anchor="middle" x="72" y="-380.1" font-family="Courier,monospace" font-size="11.00">Polygon</text>
</g>
<!-- \\Tazorax\\MathUtils\\TwoD\\Rectangle&#45;&gt;\\Tazorax\\MathUtils\\TwoD\\Polygon -->
<g id="edge8" class="edge"><title>\\Tazorax\\MathUtils\\TwoD\\Rectangle&#45;&gt;\\Tazorax\\MathUtils\\TwoD\\Polygon</title>
<path fill="none" stroke="black" d="M206.175,-403.941C178.759,-399.662 142.051,-393.933 113.96,-389.549"/>
<polygon fill="none" stroke="black" points="114.454,-386.084 104.034,-388 113.375,-393 114.454,-386.084"/>
</g>
<!-- \\Tazorax\\MathUtils\\TwoD\\Triangle -->
<g id="node10" class="node"><title>\\Tazorax\\MathUtils\\TwoD\\Triangle</title>
<polygon fill="none" stroke="black" points="280,-374 210,-374 210,-338 280,-338 280,-374"/>
<text text-anchor="middle" x="245" y="-353.1" font-family="Courier,monospace" font-size="11.00">Triangle</text>
</g>
<!-- \\Tazorax\\MathUtils\\TwoD\\Triangle&#45;&gt;\\Tazorax\\MathUtils\\TwoD\\Polygon -->
<g id="edge10" class="edge"><title>\\Tazorax\\MathUtils\\TwoD\\Triangle&#45;&gt;\\Tazorax\\MathUtils\\TwoD\\Polygon</title>
<path fill="none" stroke="black" d="M209.154,-361.594C181.444,-365.919 143.025,-371.915 113.896,-376.461"/>
<polygon fill="none" stroke="black" points="113.354,-373.004 104.013,-378.004 114.433,-379.92 113.354,-373.004"/>
</g>
<!-- \\Tazorax\\MathUtils\\TwoD\\Point2d -->
<g id="node12" class="node"><title>\\Tazorax\\MathUtils\\TwoD\\Point2d</title>
<polygon fill="none" stroke="black" points="277,-320 213,-320 213,-284 277,-284 277,-320"/>
<text text-anchor="middle" x="245" y="-299.1" font-family="Courier,monospace" font-size="11.00">Point2d</text>
</g>
<!-- \\Tazorax\\MathUtils\\TwoD\\Vector2d -->
<g id="node13" class="node"><title>\\Tazorax\\MathUtils\\TwoD\\Vector2d</title>
<polygon fill="none" stroke="black" points="280,-266 210,-266 210,-230 280,-230 280,-266"/>
<text text-anchor="middle" x="245" y="-245.1" font-family="Courier,monospace" font-size="11.00">Vector2d</text>
</g>
<!-- \\Tazorax\\MathUtils\\Arithmetic\\Fraction -->
<g id="node15" class="node"><title>\\Tazorax\\MathUtils\\Arithmetic\\Fraction</title>
<polygon fill="none" stroke="black" points="280,-184 210,-184 210,-148 280,-148 280,-184"/>
<text text-anchor="middle" x="245" y="-163.1" font-family="Courier,monospace" font-size="11.00">Fraction</text>
</g>
<!-- \\Tazorax\\MathUtils\\Arithmetic\\Utils -->
<g id="node16" class="node"><title>\\Tazorax\\MathUtils\\Arithmetic\\Utils</title>
<polygon fill="none" stroke="black" points="272,-130 218,-130 218,-94 272,-94 272,-130"/>
<text text-anchor="middle" x="245" y="-109.1" font-family="Courier,monospace" font-size="11.00">Utils</text>
</g>
<!-- \\Tazorax\\MathUtils\\Arithmetic\\FractionCollection -->
<g id="node17" class="node"><title>\\Tazorax\\MathUtils\\Arithmetic\\FractionCollection</title>
<polygon fill="none" stroke="black" points="314,-76 176,-76 176,-40 314,-40 314,-76"/>
<text text-anchor="middle" x="245" y="-55.1" font-family="Courier,monospace" font-size="11.00">FractionCollection</text>
</g>
</g>
</svg>
