<?xml version="1.0" encoding="UTF-8" standalone="no"?>
<!DOCTYPE svg PUBLIC "-//W3C//DTD SVG 1.1//EN"
 "http://www.w3.org/Graphics/SVG/1.1/DTD/svg11.dtd">
<!-- Generated by graphviz version 2.26.3 (20100126.1600)
 -->
<!-- Title: G Pages: 1 -->
<svg width="226pt" height="754pt"
 viewBox="0.00 0.00 226.00 754.00" xmlns="http://www.w3.org/2000/svg" xmlns:xlink="http://www.w3.org/1999/xlink">
<g id="graph1" class="graph" transform="scale(1 1) rotate(0) translate(4 750)">
<title>G</title>
<polygon fill="white" stroke="white" points="-4,5 -4,-750 223,-750 223,5 -4,5"/>
<g id="graph2" class="cluster"><title>cluster_Global</title>
<polyline fill="none" stroke="gray" points="20,-8 198,-8 "/>
<path fill="none" stroke="gray" d="M198,-8C204,-8 210,-14 210,-20"/>
<polyline fill="none" stroke="gray" points="210,-20 210,-726 "/>
<path fill="none" stroke="gray" d="M210,-726C210,-732 204,-738 198,-738"/>
<polyline fill="none" stroke="gray" points="198,-738 20,-738 "/>
<path fill="none" stroke="gray" d="M20,-738C14,-738 8,-732 8,-726"/>
<polyline fill="none" stroke="gray" points="8,-726 8,-20 "/>
<path fill="none" stroke="gray" d="M8,-20C8,-14 14,-8 20,-8"/>
<text text-anchor="middle" x="109" y="-724.1" font-family="Times Roman,serif" font-size="11.00" fill="gray">Global</text>
</g>
<g id="graph3" class="cluster"><title>cluster_\Tazorax</title>
<polyline fill="none" stroke="gray" points="28,-16 190,-16 "/>
<path fill="none" stroke="gray" d="M190,-16C196,-16 202,-22 202,-28"/>
<polyline fill="none" stroke="gray" points="202,-28 202,-696 "/>
<path fill="none" stroke="gray" d="M202,-696C202,-702 196,-708 190,-708"/>
<polyline fill="none" stroke="gray" points="190,-708 28,-708 "/>
<path fill="none" stroke="gray" d="M28,-708C22,-708 16,-702 16,-696"/>
<polyline fill="none" stroke="gray" points="16,-696 16,-28 "/>
<path fill="none" stroke="gray" d="M16,-28C16,-22 22,-16 28,-16"/>
<text text-anchor="middle" x="109" y="-694.1" font-family="Times Roman,serif" font-size="11.00" fill="gray">Tazorax</text>
</g>
<g id="graph4" class="cluster"><title>cluster_\Tazorax\MathUtils</title>
<polyline fill="none" stroke="gray" points="36,-24 182,-24 "/>
<path fill="none" stroke="gray" d="M182,-24C188,-24 194,-30 194,-36"/>
<polyline fill="none" stroke="gray" points="194,-36 194,-666 "/>
<path fill="none" stroke="gray" d="M194,-666C194,-672 188,-678 182,-678"/>
<polyline fill="none" stroke="gray" points="182,-678 36,-678 "/>
<path fill="none" stroke="gray" d="M36,-678C30,-678 24,-672 24,-666"/>
<polyline fill="none" stroke="gray" points="24,-666 24,-36 "/>
<path fill="none" stroke="gray" d="M24,-36C24,-30 30,-24 36,-24"/>
<text text-anchor="middle" x="109" y="-664.1" font-family="Times Roman,serif" font-size="11.00" fill="gray">MathUtils</text>
</g>
<g id="graph5" class="cluster"><title>cluster_\Tazorax\MathUtils\ThreeD</title>
<polyline fill="none" stroke="gray" points="77,-466 141,-466 "/>
<path fill="none" stroke="gray" d="M141,-466C147,-466 153,-472 153,-478"/>
<polyline fill="none" stroke="gray" points="153,-478 153,-636 "/>
<path fill="none" stroke="gray" d="M153,-636C153,-642 147,-648 141,-648"/>
<polyline fill="none" stroke="gray" points="141,-648 77,-648 "/>
<path fill="none" stroke="gray" d="M77,-648C71,-648 65,-642 65,-636"/>
<polyline fill="none" stroke="gray" points="65,-636 65,-478 "/>
<path fill="none" stroke="gray" d="M65,-478C65,-472 71,-466 77,-466"/>
<text text-anchor="middle" x="109" y="-634.1" font-family="Times Roman,serif" font-size="11.00" fill="gray">ThreeD</text>
</g>
<g id="graph6" class="cluster"><title>cluster_\Tazorax\MathUtils\TwoD</title>
<polyline fill="none" stroke="gray" points="77,-222 141,-222 "/>
<path fill="none" stroke="gray" d="M141,-222C147,-222 153,-228 153,-234"/>
<polyline fill="none" stroke="gray" points="153,-234 153,-446 "/>
<path fill="none" stroke="gray" d="M153,-446C153,-452 147,-458 141,-458"/>
<polyline fill="none" stroke="gray" points="141,-458 77,-458 "/>
<path fill="none" stroke="gray" d="M77,-458C71,-458 65,-452 65,-446"/>
<polyline fill="none" stroke="gray" points="65,-446 65,-234 "/>
<path fill="none" stroke="gray" d="M65,-234C65,-228 71,-222 77,-222"/>
<text text-anchor="middle" x="109" y="-444.1" font-family="Times Roman,serif" font-size="11.00" fill="gray">TwoD</text>
</g>
<g id="graph7" class="cluster"><title>cluster_\Tazorax\MathUtils\Arithmetic</title>
<polyline fill="none" stroke="gray" points="44,-32 174,-32 "/>
<path fill="none" stroke="gray" d="M174,-32C180,-32 186,-38 186,-44"/>
<polyline fill="none" stroke="gray" points="186,-44 186,-202 "/>
<path fill="none" stroke="gray" d="M186,-202C186,-208 180,-214 174,-214"/>
<polyline fill="none" stroke="gray" points="174,-214 44,-214 "/>
<path fill="none" stroke="gray" d="M44,-214C38,-214 32,-208 32,-202"/>
<polyline fill="none" stroke="gray" points="32,-202 32,-44 "/>
<path fill="none" stroke="gray" d="M32,-44C32,-38 38,-32 44,-32"/>
<text text-anchor="middle" x="109" y="-200.1" font-family="Times Roman,serif" font-size="11.00" fill="gray">Arithmetic</text>
</g>
<!-- \\Tazorax\\MathUtils\\ThreeD\\Vector3d -->
<g id="node5" class="node"><title>\\Tazorax\\MathUtils\\ThreeD\\Vector3d</title>
<polygon fill="none" stroke="black" points="144,-618 74,-618 74,-582 144,-582 144,-618"/>
<text text-anchor="middle" x="109" y="-597.1" font-family="Courier,monospace" font-size="11.00">Vector3d</text>
</g>
<!-- \\Tazorax\\MathUtils\\ThreeD\\Point3d -->
<g id="node6" class="node"><title>\\Tazorax\\MathUtils\\ThreeD\\Point3d</title>
<polygon fill="none" stroke="black" points="141,-564 77,-564 77,-528 141,-528 141,-564"/>
<text text-anchor="middle" x="109" y="-543.1" font-family="Courier,monospace" font-size="11.00">Point3d</text>
</g>
<!-- \\Tazorax\\MathUtils\\ThreeD\\Matrix3d -->
<g id="node7" class="node"><title>\\Tazorax\\MathUtils\\ThreeD\\Matrix3d</title>
<polygon fill="none" stroke="black" points="144,-510 74,-510 74,-474 144,-474 144,-510"/>
<text text-anchor="middle" x="109" y="-489.1" font-family="Courier,monospace" font-size="11.00">Matrix3d</text>
</g>
<!-- \\Tazorax\\MathUtils\\TwoD\\Triangle -->
<g id="node9" class="node"><title>\\Tazorax\\MathUtils\\TwoD\\Triangle</title>
<polygon fill="none" stroke="black" points="144,-428 74,-428 74,-392 144,-392 144,-428"/>
<text text-anchor="middle" x="109" y="-407.1" font-family="Courier,monospace" font-size="11.00">Triangle</text>
</g>
<!-- \\Tazorax\\MathUtils\\TwoD\\Polygon -->
<g id="node10" class="node"><title>\\Tazorax\\MathUtils\\TwoD\\Polygon</title>
<polygon fill="none" stroke="black" points="141,-374 77,-374 77,-338 141,-338 141,-374"/>
<text text-anchor="middle" x="109" y="-353.1" font-family="Courier,monospace" font-size="11.00">Polygon</text>
</g>
<!-- \\Tazorax\\MathUtils\\TwoD\\Point2d -->
<g id="node11" class="node"><title>\\Tazorax\\MathUtils\\TwoD\\Point2d</title>
<polygon fill="none" stroke="black" points="141,-320 77,-320 77,-284 141,-284 141,-320"/>
<text text-anchor="middle" x="109" y="-299.1" font-family="Courier,monospace" font-size="11.00">Point2d</text>
</g>
<!-- \\Tazorax\\MathUtils\\TwoD\\Vector2d -->
<g id="node12" class="node"><title>\\Tazorax\\MathUtils\\TwoD\\Vector2d</title>
<polygon fill="none" stroke="black" points="144,-266 74,-266 74,-230 144,-230 144,-266"/>
<text text-anchor="middle" x="109" y="-245.1" font-family="Courier,monospace" font-size="11.00">Vector2d</text>
</g>
<!-- \\Tazorax\\MathUtils\\Arithmetic\\Fraction -->
<g id="node14" class="node"><title>\\Tazorax\\MathUtils\\Arithmetic\\Fraction</title>
<polygon fill="none" stroke="black" points="144,-184 74,-184 74,-148 144,-148 144,-184"/>
<text text-anchor="middle" x="109" y="-163.1" font-family="Courier,monospace" font-size="11.00">Fraction</text>
</g>
<!-- \\Tazorax\\MathUtils\\Arithmetic\\Utils -->
<g id="node15" class="node"><title>\\Tazorax\\MathUtils\\Arithmetic\\Utils</title>
<polygon fill="none" stroke="black" points="136,-130 82,-130 82,-94 136,-94 136,-130"/>
<text text-anchor="middle" x="109" y="-109.1" font-family="Courier,monospace" font-size="11.00">Utils</text>
</g>
<!-- \\Tazorax\\MathUtils\\Arithmetic\\FractionCollection -->
<g id="node16" class="node"><title>\\Tazorax\\MathUtils\\Arithmetic\\FractionCollection</title>
<polygon fill="none" stroke="black" points="178,-76 40,-76 40,-40 178,-40 178,-76"/>
<text text-anchor="middle" x="109" y="-55.1" font-family="Courier,monospace" font-size="11.00">FractionCollection</text>
</g>
</g>
</svg>
